<mxfile>
    <diagram id="3IBe7R3iGYlcwFwDlljF" name="Page-1">
        <mxGraphModel dx="1365" dy="1999" grid="1" gridSize="10" guides="1" tooltips="1" connect="1" arrows="1" fold="1" page="1" pageScale="1" pageWidth="827" pageHeight="1169" math="0" shadow="0">
            <root>
                <mxCell id="0"/>
                <mxCell id="1" parent="0"/>
                <mxCell id="4" value="" style="edgeStyle=orthogonalEdgeStyle;rounded=0;orthogonalLoop=1;jettySize=auto;html=1;" parent="1" source="2" target="3" edge="1">
                    <mxGeometry relative="1" as="geometry"/>
                </mxCell>
                <mxCell id="2" value="CR" style="shape=cube;whiteSpace=wrap;html=1;boundedLbl=1;backgroundOutline=1;darkOpacity=0.05;darkOpacity2=0.1;" parent="1" vertex="1">
                    <mxGeometry x="285" y="-305" width="120" height="80" as="geometry"/>
                </mxCell>
                <mxCell id="3" value="" style="whiteSpace=wrap;html=1;" parent="1" vertex="1">
                    <mxGeometry x="230" y="-490" width="230" height="140" as="geometry"/>
                </mxCell>
                <mxCell id="8" value="" style="edgeStyle=orthogonalEdgeStyle;rounded=0;orthogonalLoop=1;jettySize=auto;html=1;" parent="1" source="5" target="7" edge="1">
                    <mxGeometry relative="1" as="geometry"/>
                </mxCell>
                <mxCell id="10" value="" style="edgeStyle=orthogonalEdgeStyle;rounded=0;orthogonalLoop=1;jettySize=auto;html=1;entryX=0;entryY=0.6;entryDx=0;entryDy=0;entryPerimeter=0;" parent="1" source="5" target="9" edge="1">
                    <mxGeometry relative="1" as="geometry"/>
                </mxCell>
                <mxCell id="5" value="Microsservico" style="ellipse;whiteSpace=wrap;html=1;" parent="1" vertex="1">
                    <mxGeometry x="20" y="78" width="120" height="80" as="geometry"/>
                </mxCell>
                <mxCell id="20" value="" style="edgeStyle=orthogonalEdgeStyle;rounded=0;orthogonalLoop=1;jettySize=auto;html=1;entryX=0.25;entryY=0.25;entryDx=0;entryDy=0;entryPerimeter=0;" parent="1" source="7" target="11" edge="1">
                    <mxGeometry relative="1" as="geometry">
                        <Array as="points">
                            <mxPoint x="83" y="413"/>
                        </Array>
                    </mxGeometry>
                </mxCell>
                <mxCell id="21" value="Consumir execuções" style="edgeLabel;html=1;align=center;verticalAlign=middle;resizable=0;points=[];" parent="20" vertex="1" connectable="0">
                    <mxGeometry x="-0.503" y="3" relative="1" as="geometry">
                        <mxPoint as="offset"/>
                    </mxGeometry>
                </mxCell>
                <mxCell id="29" value="" style="edgeStyle=orthogonalEdgeStyle;rounded=0;orthogonalLoop=1;jettySize=auto;html=1;" parent="1" source="7" target="28" edge="1">
                    <mxGeometry relative="1" as="geometry"/>
                </mxCell>
                <mxCell id="7" value="&lt;span&gt;Adm decidir qual o work&lt;/span&gt;" style="whiteSpace=wrap;html=1;" parent="1" vertex="1">
                    <mxGeometry x="20" y="230" width="120" height="60" as="geometry"/>
                </mxCell>
                <mxCell id="23" value="" style="edgeStyle=orthogonalEdgeStyle;rounded=0;orthogonalLoop=1;jettySize=auto;html=1;" parent="1" source="9" target="22" edge="1">
                    <mxGeometry relative="1" as="geometry">
                        <Array as="points">
                            <mxPoint x="400" y="118"/>
                            <mxPoint x="400" y="118"/>
                        </Array>
                    </mxGeometry>
                </mxCell>
                <mxCell id="27" value="" style="edgeStyle=orthogonalEdgeStyle;rounded=0;orthogonalLoop=1;jettySize=auto;html=1;" parent="1" source="9" target="26" edge="1">
                    <mxGeometry relative="1" as="geometry"/>
                </mxCell>
                <mxCell id="9" value="MongoDb" style="shape=cylinder;whiteSpace=wrap;html=1;boundedLbl=1;backgroundOutline=1;" parent="1" vertex="1">
                    <mxGeometry x="320" y="70" width="60" height="80" as="geometry"/>
                </mxCell>
                <mxCell id="32" style="edgeStyle=orthogonalEdgeStyle;rounded=0;orthogonalLoop=1;jettySize=auto;html=1;entryX=0;entryY=0.25;entryDx=0;entryDy=0;exitX=0.772;exitY=0.186;exitDx=0;exitDy=0;exitPerimeter=0;" parent="1" source="11" target="12" edge="1">
                    <mxGeometry relative="1" as="geometry">
                        <Array as="points">
                            <mxPoint x="213" y="410"/>
                            <mxPoint x="370" y="410"/>
                            <mxPoint x="370" y="176"/>
                        </Array>
                    </mxGeometry>
                </mxCell>
                <mxCell id="33" value="Consumir msg de execução" style="edgeLabel;html=1;align=center;verticalAlign=middle;resizable=0;points=[];" parent="32" vertex="1" connectable="0">
                    <mxGeometry x="0.5208" y="-2" relative="1" as="geometry">
                        <mxPoint as="offset"/>
                    </mxGeometry>
                </mxCell>
                <mxCell id="11" value="Kak&lt;br&gt;Resp apenas pra adm msg (Producer, consumer)" style="ellipse;shape=cloud;whiteSpace=wrap;html=1;" parent="1" vertex="1">
                    <mxGeometry x="20" y="390" width="250" height="210" as="geometry"/>
                </mxCell>
                <mxCell id="14" value="" style="edgeStyle=orthogonalEdgeStyle;rounded=0;orthogonalLoop=1;jettySize=auto;html=1;" parent="1" source="12" target="13" edge="1">
                    <mxGeometry relative="1" as="geometry"/>
                </mxCell>
                <mxCell id="35" style="edgeStyle=orthogonalEdgeStyle;rounded=0;orthogonalLoop=1;jettySize=auto;html=1;entryX=0.84;entryY=0.224;entryDx=0;entryDy=0;entryPerimeter=0;" parent="1" source="36" target="11" edge="1">
                    <mxGeometry relative="1" as="geometry">
                        <Array as="points">
                            <mxPoint x="520" y="437"/>
                        </Array>
                    </mxGeometry>
                </mxCell>
                <mxCell id="38" style="edgeStyle=orthogonalEdgeStyle;rounded=0;orthogonalLoop=1;jettySize=auto;html=1;entryX=1;entryY=0.5;entryDx=0;entryDy=0;" parent="1" source="12" target="36" edge="1">
                    <mxGeometry relative="1" as="geometry"/>
                </mxCell>
                <mxCell id="12" value="Desktop" style="shape=trapezoid;perimeter=trapezoidPerimeter;whiteSpace=wrap;html=1;fixedSize=1;" parent="1" vertex="1">
                    <mxGeometry x="680" y="158" width="120" height="60" as="geometry"/>
                </mxCell>
                <mxCell id="16" value="" style="edgeStyle=orthogonalEdgeStyle;rounded=0;orthogonalLoop=1;jettySize=auto;html=1;" parent="1" source="13" target="15" edge="1">
                    <mxGeometry relative="1" as="geometry"/>
                </mxCell>
                <mxCell id="13" value="Exec o work" style="whiteSpace=wrap;html=1;" parent="1" vertex="1">
                    <mxGeometry x="680" y="310" width="120" height="60" as="geometry"/>
                </mxCell>
                <mxCell id="18" value="" style="edgeStyle=orthogonalEdgeStyle;rounded=0;orthogonalLoop=1;jettySize=auto;html=1;" parent="1" source="15" target="17" edge="1">
                    <mxGeometry relative="1" as="geometry">
                        <Array as="points">
                            <mxPoint x="670" y="480"/>
                            <mxPoint x="670" y="480"/>
                        </Array>
                    </mxGeometry>
                </mxCell>
                <mxCell id="15" value="Exectou ?" style="rhombus;whiteSpace=wrap;html=1;" parent="1" vertex="1">
                    <mxGeometry x="700" y="410" width="80" height="80" as="geometry"/>
                </mxCell>
                <mxCell id="19" style="edgeStyle=orthogonalEdgeStyle;rounded=0;orthogonalLoop=1;jettySize=auto;html=1;entryX=0.875;entryY=0.5;entryDx=0;entryDy=0;entryPerimeter=0;" parent="1" source="17" target="11" edge="1">
                    <mxGeometry relative="1" as="geometry">
                        <Array as="points">
                            <mxPoint x="310" y="495"/>
                            <mxPoint x="310" y="495"/>
                        </Array>
                    </mxGeometry>
                </mxCell>
                <mxCell id="17" value="Producer (id work, status executado, id Maquina)" style="whiteSpace=wrap;html=1;" parent="1" vertex="1">
                    <mxGeometry x="480" y="470" width="120" height="60" as="geometry"/>
                </mxCell>
                <mxCell id="22" value="Collection Works" style="whiteSpace=wrap;html=1;" parent="1" vertex="1">
                    <mxGeometry x="430" y="88" width="120" height="60" as="geometry"/>
                </mxCell>
                <mxCell id="26" value="Collection S Works" style="whiteSpace=wrap;html=1;" parent="1" vertex="1">
                    <mxGeometry x="290" y="-50" width="120" height="60" as="geometry"/>
                </mxCell>
                <mxCell id="30" value="" style="edgeStyle=orthogonalEdgeStyle;rounded=0;orthogonalLoop=1;jettySize=auto;html=1;entryX=0.625;entryY=0.2;entryDx=0;entryDy=0;entryPerimeter=0;" parent="1" source="28" target="11" edge="1">
                    <mxGeometry relative="1" as="geometry"/>
                </mxCell>
                <mxCell id="28" value="Vai produzir a msg com o work e a maquina disponivel" style="whiteSpace=wrap;html=1;" parent="1" vertex="1">
                    <mxGeometry x="210" y="230" width="120" height="60" as="geometry"/>
                </mxCell>
                <mxCell id="31" value="Produzir" style="text;html=1;align=center;verticalAlign=middle;resizable=0;points=[];autosize=1;" parent="1" vertex="1">
                    <mxGeometry x="170" y="340" width="60" height="20" as="geometry"/>
                </mxCell>
                <mxCell id="36" value="Producer (id work, status executando, id Maquina)" style="whiteSpace=wrap;html=1;" parent="1" vertex="1">
                    <mxGeometry x="460" y="270" width="120" height="60" as="geometry"/>
                </mxCell>
            </root>
        </mxGraphModel>
    </diagram>
    <diagram id="Flxtng-nEUcgpisyMzrQ" name="Page-2">
        <mxGraphModel dx="2192" dy="1999" grid="1" gridSize="10" guides="1" tooltips="1" connect="1" arrows="1" fold="1" page="1" pageScale="1" pageWidth="827" pageHeight="1169" math="0" shadow="0">
            <root>
                <mxCell id="_BqzhUo7r6KFsQszncDg-0"/>
                <mxCell id="_BqzhUo7r6KFsQszncDg-1" parent="_BqzhUo7r6KFsQszncDg-0"/>
                <mxCell id="HuJQZx4Fs1qWkKsaPRrp-3" value="" style="edgeStyle=orthogonalEdgeStyle;rounded=0;orthogonalLoop=1;jettySize=auto;html=1;" parent="_BqzhUo7r6KFsQszncDg-1" source="HuJQZx4Fs1qWkKsaPRrp-5" target="HuJQZx4Fs1qWkKsaPRrp-9" edge="1">
                    <mxGeometry relative="1" as="geometry"/>
                </mxCell>
                <mxCell id="HuJQZx4Fs1qWkKsaPRrp-4" value="" style="edgeStyle=orthogonalEdgeStyle;rounded=0;orthogonalLoop=1;jettySize=auto;html=1;entryX=0;entryY=0.6;entryDx=0;entryDy=0;entryPerimeter=0;" parent="_BqzhUo7r6KFsQszncDg-1" source="HuJQZx4Fs1qWkKsaPRrp-5" target="HuJQZx4Fs1qWkKsaPRrp-12" edge="1">
                    <mxGeometry relative="1" as="geometry"/>
                </mxCell>
                <mxCell id="HuJQZx4Fs1qWkKsaPRrp-5" value="Microsservico" style="ellipse;whiteSpace=wrap;html=1;" parent="_BqzhUo7r6KFsQszncDg-1" vertex="1">
                    <mxGeometry x="20" y="78" width="120" height="80" as="geometry"/>
                </mxCell>
                <mxCell id="HuJQZx4Fs1qWkKsaPRrp-6" value="" style="edgeStyle=orthogonalEdgeStyle;rounded=0;orthogonalLoop=1;jettySize=auto;html=1;entryX=0.25;entryY=0.25;entryDx=0;entryDy=0;entryPerimeter=0;" parent="_BqzhUo7r6KFsQszncDg-1" source="HuJQZx4Fs1qWkKsaPRrp-9" target="HuJQZx4Fs1qWkKsaPRrp-15" edge="1">
                    <mxGeometry relative="1" as="geometry">
                        <Array as="points">
                            <mxPoint x="83" y="413"/>
                        </Array>
                    </mxGeometry>
                </mxCell>
                <mxCell id="HuJQZx4Fs1qWkKsaPRrp-7" value="Consumir execuções" style="edgeLabel;html=1;align=center;verticalAlign=middle;resizable=0;points=[];" parent="HuJQZx4Fs1qWkKsaPRrp-6" vertex="1" connectable="0">
                    <mxGeometry x="-0.503" y="3" relative="1" as="geometry">
                        <mxPoint as="offset"/>
                    </mxGeometry>
                </mxCell>
                <mxCell id="HuJQZx4Fs1qWkKsaPRrp-8" value="" style="edgeStyle=orthogonalEdgeStyle;rounded=0;orthogonalLoop=1;jettySize=auto;html=1;" parent="_BqzhUo7r6KFsQszncDg-1" source="HuJQZx4Fs1qWkKsaPRrp-9" target="HuJQZx4Fs1qWkKsaPRrp-29" edge="1">
                    <mxGeometry relative="1" as="geometry"/>
                </mxCell>
                <mxCell id="HuJQZx4Fs1qWkKsaPRrp-9" value="&lt;span&gt;Adm decidir qual o work&lt;/span&gt;" style="whiteSpace=wrap;html=1;" parent="_BqzhUo7r6KFsQszncDg-1" vertex="1">
                    <mxGeometry x="20" y="230" width="120" height="60" as="geometry"/>
                </mxCell>
                <mxCell id="HuJQZx4Fs1qWkKsaPRrp-11" value="" style="edgeStyle=orthogonalEdgeStyle;rounded=0;orthogonalLoop=1;jettySize=auto;html=1;" parent="_BqzhUo7r6KFsQszncDg-1" source="HuJQZx4Fs1qWkKsaPRrp-12" target="HuJQZx4Fs1qWkKsaPRrp-27" edge="1">
                    <mxGeometry relative="1" as="geometry"/>
                </mxCell>
                <mxCell id="HuJQZx4Fs1qWkKsaPRrp-12" value="MongoDb" style="shape=cylinder;whiteSpace=wrap;html=1;boundedLbl=1;backgroundOutline=1;" parent="_BqzhUo7r6KFsQszncDg-1" vertex="1">
                    <mxGeometry x="320" y="70" width="60" height="80" as="geometry"/>
                </mxCell>
                <mxCell id="HuJQZx4Fs1qWkKsaPRrp-13" style="edgeStyle=orthogonalEdgeStyle;rounded=0;orthogonalLoop=1;jettySize=auto;html=1;entryX=0;entryY=0.25;entryDx=0;entryDy=0;exitX=0.772;exitY=0.186;exitDx=0;exitDy=0;exitPerimeter=0;" parent="_BqzhUo7r6KFsQszncDg-1" source="HuJQZx4Fs1qWkKsaPRrp-15" target="HuJQZx4Fs1qWkKsaPRrp-19" edge="1">
                    <mxGeometry relative="1" as="geometry">
                        <Array as="points">
                            <mxPoint x="213" y="410"/>
                            <mxPoint x="420" y="410"/>
                            <mxPoint x="420" y="177"/>
                        </Array>
                    </mxGeometry>
                </mxCell>
                <mxCell id="HuJQZx4Fs1qWkKsaPRrp-14" value="Consumir msg de execução" style="edgeLabel;html=1;align=center;verticalAlign=middle;resizable=0;points=[];" parent="HuJQZx4Fs1qWkKsaPRrp-13" vertex="1" connectable="0">
                    <mxGeometry x="0.5208" y="-2" relative="1" as="geometry">
                        <mxPoint as="offset"/>
                    </mxGeometry>
                </mxCell>
                <mxCell id="HuJQZx4Fs1qWkKsaPRrp-15" value="Kak&lt;br&gt;Resp apenas pra adm msg (Producer, consumer)" style="ellipse;shape=cloud;whiteSpace=wrap;html=1;" parent="_BqzhUo7r6KFsQszncDg-1" vertex="1">
                    <mxGeometry x="20" y="390" width="250" height="210" as="geometry"/>
                </mxCell>
                <mxCell id="HuJQZx4Fs1qWkKsaPRrp-16" value="" style="edgeStyle=orthogonalEdgeStyle;rounded=0;orthogonalLoop=1;jettySize=auto;html=1;" parent="_BqzhUo7r6KFsQszncDg-1" source="HuJQZx4Fs1qWkKsaPRrp-19" target="HuJQZx4Fs1qWkKsaPRrp-21" edge="1">
                    <mxGeometry relative="1" as="geometry"/>
                </mxCell>
                <mxCell id="HuJQZx4Fs1qWkKsaPRrp-17" style="edgeStyle=orthogonalEdgeStyle;rounded=0;orthogonalLoop=1;jettySize=auto;html=1;entryX=0.84;entryY=0.224;entryDx=0;entryDy=0;entryPerimeter=0;" parent="_BqzhUo7r6KFsQszncDg-1" source="HuJQZx4Fs1qWkKsaPRrp-31" target="HuJQZx4Fs1qWkKsaPRrp-15" edge="1">
                    <mxGeometry relative="1" as="geometry">
                        <Array as="points">
                            <mxPoint x="520" y="437"/>
                        </Array>
                    </mxGeometry>
                </mxCell>
                <mxCell id="HuJQZx4Fs1qWkKsaPRrp-18" style="edgeStyle=orthogonalEdgeStyle;rounded=0;orthogonalLoop=1;jettySize=auto;html=1;entryX=1;entryY=0.5;entryDx=0;entryDy=0;" parent="_BqzhUo7r6KFsQszncDg-1" source="HuJQZx4Fs1qWkKsaPRrp-19" target="HuJQZx4Fs1qWkKsaPRrp-31" edge="1">
                    <mxGeometry relative="1" as="geometry">
                        <Array as="points">
                            <mxPoint x="630" y="200"/>
                            <mxPoint x="630" y="300"/>
                        </Array>
                    </mxGeometry>
                </mxCell>
                <mxCell id="HuJQZx4Fs1qWkKsaPRrp-33" value="" style="edgeStyle=orthogonalEdgeStyle;rounded=0;orthogonalLoop=1;jettySize=auto;html=1;" parent="_BqzhUo7r6KFsQszncDg-1" source="HuJQZx4Fs1qWkKsaPRrp-19" target="HuJQZx4Fs1qWkKsaPRrp-32" edge="1">
                    <mxGeometry relative="1" as="geometry"/>
                </mxCell>
                <mxCell id="HuJQZx4Fs1qWkKsaPRrp-62" style="edgeStyle=orthogonalEdgeStyle;rounded=0;orthogonalLoop=1;jettySize=auto;html=1;entryX=0.75;entryY=0;entryDx=0;entryDy=0;" parent="_BqzhUo7r6KFsQszncDg-1" source="HuJQZx4Fs1qWkKsaPRrp-19" target="HuJQZx4Fs1qWkKsaPRrp-61" edge="1">
                    <mxGeometry relative="1" as="geometry">
                        <Array as="points">
                            <mxPoint x="740" y="250"/>
                            <mxPoint x="660" y="250"/>
                            <mxPoint x="660" y="340"/>
                            <mxPoint x="630" y="340"/>
                        </Array>
                    </mxGeometry>
                </mxCell>
                <mxCell id="HuJQZx4Fs1qWkKsaPRrp-19" value="Desktop" style="shape=trapezoid;perimeter=trapezoidPerimeter;whiteSpace=wrap;html=1;fixedSize=1;" parent="_BqzhUo7r6KFsQszncDg-1" vertex="1">
                    <mxGeometry x="680" y="150" width="120" height="60" as="geometry"/>
                </mxCell>
                <mxCell id="HuJQZx4Fs1qWkKsaPRrp-20" value="" style="edgeStyle=orthogonalEdgeStyle;rounded=0;orthogonalLoop=1;jettySize=auto;html=1;" parent="_BqzhUo7r6KFsQszncDg-1" source="HuJQZx4Fs1qWkKsaPRrp-21" target="HuJQZx4Fs1qWkKsaPRrp-23" edge="1">
                    <mxGeometry relative="1" as="geometry"/>
                </mxCell>
                <mxCell id="HuJQZx4Fs1qWkKsaPRrp-21" value="Exec o work" style="whiteSpace=wrap;html=1;" parent="_BqzhUo7r6KFsQszncDg-1" vertex="1">
                    <mxGeometry x="680" y="310" width="120" height="60" as="geometry"/>
                </mxCell>
                <mxCell id="HuJQZx4Fs1qWkKsaPRrp-22" value="" style="edgeStyle=orthogonalEdgeStyle;rounded=0;orthogonalLoop=1;jettySize=auto;html=1;" parent="_BqzhUo7r6KFsQszncDg-1" source="HuJQZx4Fs1qWkKsaPRrp-23" target="HuJQZx4Fs1qWkKsaPRrp-25" edge="1">
                    <mxGeometry relative="1" as="geometry">
                        <Array as="points">
                            <mxPoint x="670" y="480"/>
                            <mxPoint x="670" y="480"/>
                        </Array>
                    </mxGeometry>
                </mxCell>
                <mxCell id="HuJQZx4Fs1qWkKsaPRrp-46" value="" style="edgeStyle=orthogonalEdgeStyle;rounded=0;orthogonalLoop=1;jettySize=auto;html=1;" parent="_BqzhUo7r6KFsQszncDg-1" source="HuJQZx4Fs1qWkKsaPRrp-23" target="HuJQZx4Fs1qWkKsaPRrp-45" edge="1">
                    <mxGeometry relative="1" as="geometry"/>
                </mxCell>
                <mxCell id="HuJQZx4Fs1qWkKsaPRrp-23" value="Exectou ?" style="rhombus;whiteSpace=wrap;html=1;" parent="_BqzhUo7r6KFsQszncDg-1" vertex="1">
                    <mxGeometry x="700" y="410" width="80" height="80" as="geometry"/>
                </mxCell>
                <mxCell id="HuJQZx4Fs1qWkKsaPRrp-24" style="edgeStyle=orthogonalEdgeStyle;rounded=0;orthogonalLoop=1;jettySize=auto;html=1;entryX=0.875;entryY=0.5;entryDx=0;entryDy=0;entryPerimeter=0;" parent="_BqzhUo7r6KFsQszncDg-1" source="HuJQZx4Fs1qWkKsaPRrp-25" target="HuJQZx4Fs1qWkKsaPRrp-15" edge="1">
                    <mxGeometry relative="1" as="geometry">
                        <Array as="points">
                            <mxPoint x="310" y="495"/>
                            <mxPoint x="310" y="495"/>
                        </Array>
                    </mxGeometry>
                </mxCell>
                <mxCell id="HuJQZx4Fs1qWkKsaPRrp-25" value="Producer (id work, status executado, id Maquina)" style="whiteSpace=wrap;html=1;" parent="_BqzhUo7r6KFsQszncDg-1" vertex="1">
                    <mxGeometry x="480" y="470" width="120" height="60" as="geometry"/>
                </mxCell>
                <mxCell id="HuJQZx4Fs1qWkKsaPRrp-36" value="" style="edgeStyle=orthogonalEdgeStyle;rounded=0;orthogonalLoop=1;jettySize=auto;html=1;" parent="_BqzhUo7r6KFsQszncDg-1" source="HuJQZx4Fs1qWkKsaPRrp-26" target="HuJQZx4Fs1qWkKsaPRrp-12" edge="1">
                    <mxGeometry relative="1" as="geometry">
                        <Array as="points">
                            <mxPoint x="460" y="-12"/>
                            <mxPoint x="460" y="90"/>
                        </Array>
                    </mxGeometry>
                </mxCell>
                <mxCell id="HuJQZx4Fs1qWkKsaPRrp-26" value="Collection Works" style="whiteSpace=wrap;html=1;" parent="_BqzhUo7r6KFsQszncDg-1" vertex="1">
                    <mxGeometry x="420" y="-130" width="120" height="60" as="geometry"/>
                </mxCell>
                <mxCell id="HuJQZx4Fs1qWkKsaPRrp-27" value="Collection S Works" style="whiteSpace=wrap;html=1;" parent="_BqzhUo7r6KFsQszncDg-1" vertex="1">
                    <mxGeometry x="550" y="-130" width="120" height="60" as="geometry"/>
                </mxCell>
                <mxCell id="HuJQZx4Fs1qWkKsaPRrp-28" value="" style="edgeStyle=orthogonalEdgeStyle;rounded=0;orthogonalLoop=1;jettySize=auto;html=1;entryX=0.625;entryY=0.2;entryDx=0;entryDy=0;entryPerimeter=0;" parent="_BqzhUo7r6KFsQszncDg-1" source="HuJQZx4Fs1qWkKsaPRrp-29" target="HuJQZx4Fs1qWkKsaPRrp-15" edge="1">
                    <mxGeometry relative="1" as="geometry"/>
                </mxCell>
                <mxCell id="HuJQZx4Fs1qWkKsaPRrp-29" value="Vai produzir a msg com o work e a maquina disponivel" style="whiteSpace=wrap;html=1;" parent="_BqzhUo7r6KFsQszncDg-1" vertex="1">
                    <mxGeometry x="210" y="230" width="120" height="60" as="geometry"/>
                </mxCell>
                <mxCell id="HuJQZx4Fs1qWkKsaPRrp-30" value="Produzir" style="text;html=1;align=center;verticalAlign=middle;resizable=0;points=[];autosize=1;" parent="_BqzhUo7r6KFsQszncDg-1" vertex="1">
                    <mxGeometry x="170" y="340" width="60" height="20" as="geometry"/>
                </mxCell>
                <mxCell id="HuJQZx4Fs1qWkKsaPRrp-31" value="Producer (id work, status executando, id Maquina)" style="whiteSpace=wrap;html=1;" parent="_BqzhUo7r6KFsQszncDg-1" vertex="1">
                    <mxGeometry x="460" y="270" width="120" height="60" as="geometry"/>
                </mxCell>
                <mxCell id="HuJQZx4Fs1qWkKsaPRrp-35" value="" style="edgeStyle=orthogonalEdgeStyle;rounded=0;orthogonalLoop=1;jettySize=auto;html=1;entryX=0.752;entryY=0.186;entryDx=0;entryDy=0;entryPerimeter=0;exitX=0;exitY=0.5;exitDx=0;exitDy=0;" parent="_BqzhUo7r6KFsQszncDg-1" source="HuJQZx4Fs1qWkKsaPRrp-32" target="HuJQZx4Fs1qWkKsaPRrp-15" edge="1">
                    <mxGeometry relative="1" as="geometry">
                        <mxPoint x="600" y="48" as="targetPoint"/>
                        <Array as="points">
                            <mxPoint x="650" y="48"/>
                            <mxPoint x="650" y="150"/>
                            <mxPoint x="390" y="150"/>
                            <mxPoint x="390" y="390"/>
                            <mxPoint x="208" y="390"/>
                        </Array>
                    </mxGeometry>
                </mxCell>
                <mxCell id="HuJQZx4Fs1qWkKsaPRrp-32" value="Produzir msg" style="whiteSpace=wrap;html=1;" parent="_BqzhUo7r6KFsQszncDg-1" vertex="1">
                    <mxGeometry x="680" y="18" width="120" height="60" as="geometry"/>
                </mxCell>
                <mxCell id="HuJQZx4Fs1qWkKsaPRrp-39" style="edgeStyle=orthogonalEdgeStyle;rounded=0;orthogonalLoop=1;jettySize=auto;html=1;entryX=0.088;entryY=0.495;entryDx=0;entryDy=0;entryPerimeter=0;" parent="_BqzhUo7r6KFsQszncDg-1" source="HuJQZx4Fs1qWkKsaPRrp-37" target="HuJQZx4Fs1qWkKsaPRrp-15" edge="1">
                    <mxGeometry relative="1" as="geometry">
                        <Array as="points">
                            <mxPoint x="-180" y="495"/>
                            <mxPoint x="36" y="495"/>
                            <mxPoint x="36" y="494"/>
                        </Array>
                    </mxGeometry>
                </mxCell>
                <mxCell id="HuJQZx4Fs1qWkKsaPRrp-55" style="edgeStyle=orthogonalEdgeStyle;rounded=0;orthogonalLoop=1;jettySize=auto;html=1;entryX=0.15;entryY=0.05;entryDx=0;entryDy=0;entryPerimeter=0;" parent="_BqzhUo7r6KFsQszncDg-1" source="HuJQZx4Fs1qWkKsaPRrp-37" target="HuJQZx4Fs1qWkKsaPRrp-12" edge="1">
                    <mxGeometry relative="1" as="geometry">
                        <Array as="points">
                            <mxPoint x="-150" y="60"/>
                            <mxPoint x="329" y="60"/>
                        </Array>
                    </mxGeometry>
                </mxCell>
                <mxCell id="HuJQZx4Fs1qWkKsaPRrp-56" value="Vamos guardar os works" style="edgeLabel;html=1;align=center;verticalAlign=middle;resizable=0;points=[];" parent="HuJQZx4Fs1qWkKsaPRrp-55" vertex="1" connectable="0">
                    <mxGeometry x="-0.5279" y="1" relative="1" as="geometry">
                        <mxPoint as="offset"/>
                    </mxGeometry>
                </mxCell>
                <mxCell id="HuJQZx4Fs1qWkKsaPRrp-37" value="Api, nodejs" style="ellipse;whiteSpace=wrap;html=1;" parent="_BqzhUo7r6KFsQszncDg-1" vertex="1">
                    <mxGeometry x="-240" y="80" width="120" height="80" as="geometry"/>
                </mxCell>
                <mxCell id="HuJQZx4Fs1qWkKsaPRrp-43" value="" style="edgeStyle=orthogonalEdgeStyle;rounded=0;orthogonalLoop=1;jettySize=auto;html=1;" parent="_BqzhUo7r6KFsQszncDg-1" source="HuJQZx4Fs1qWkKsaPRrp-41" target="HuJQZx4Fs1qWkKsaPRrp-42" edge="1">
                    <mxGeometry relative="1" as="geometry"/>
                </mxCell>
                <mxCell id="HuJQZx4Fs1qWkKsaPRrp-48" value="" style="edgeStyle=orthogonalEdgeStyle;rounded=0;orthogonalLoop=1;jettySize=auto;html=1;" parent="_BqzhUo7r6KFsQszncDg-1" source="HuJQZx4Fs1qWkKsaPRrp-41" target="HuJQZx4Fs1qWkKsaPRrp-47" edge="1">
                    <mxGeometry relative="1" as="geometry">
                        <Array as="points">
                            <mxPoint x="-560" y="50"/>
                            <mxPoint x="-560" y="50"/>
                        </Array>
                    </mxGeometry>
                </mxCell>
                <mxCell id="HuJQZx4Fs1qWkKsaPRrp-41" value="CR" style="shape=internalStorage;whiteSpace=wrap;html=1;backgroundOutline=1;" parent="_BqzhUo7r6KFsQszncDg-1" vertex="1">
                    <mxGeometry x="-600" y="80" width="80" height="80" as="geometry"/>
                </mxCell>
                <mxCell id="HuJQZx4Fs1qWkKsaPRrp-44" value="" style="edgeStyle=orthogonalEdgeStyle;rounded=0;orthogonalLoop=1;jettySize=auto;html=1;" parent="_BqzhUo7r6KFsQszncDg-1" source="HuJQZx4Fs1qWkKsaPRrp-42" target="HuJQZx4Fs1qWkKsaPRrp-37" edge="1">
                    <mxGeometry relative="1" as="geometry"/>
                </mxCell>
                <mxCell id="HuJQZx4Fs1qWkKsaPRrp-42" value="web socket" style="ellipse;shape=cloud;whiteSpace=wrap;html=1;" parent="_BqzhUo7r6KFsQszncDg-1" vertex="1">
                    <mxGeometry x="-400" y="80" width="120" height="80" as="geometry"/>
                </mxCell>
                <mxCell id="HuJQZx4Fs1qWkKsaPRrp-45" value="Producer Error(id work, status Error, id maquina" style="whiteSpace=wrap;html=1;" parent="_BqzhUo7r6KFsQszncDg-1" vertex="1">
                    <mxGeometry x="680" y="580" width="120" height="60" as="geometry"/>
                </mxCell>
                <mxCell id="HuJQZx4Fs1qWkKsaPRrp-52" value="" style="edgeStyle=orthogonalEdgeStyle;rounded=0;orthogonalLoop=1;jettySize=auto;html=1;" parent="_BqzhUo7r6KFsQszncDg-1" source="HuJQZx4Fs1qWkKsaPRrp-47" target="HuJQZx4Fs1qWkKsaPRrp-51" edge="1">
                    <mxGeometry relative="1" as="geometry"/>
                </mxCell>
                <mxCell id="HuJQZx4Fs1qWkKsaPRrp-47" value="Realizar Carga" style="whiteSpace=wrap;html=1;" parent="_BqzhUo7r6KFsQszncDg-1" vertex="1">
                    <mxGeometry x="-620" y="-70" width="120" height="60" as="geometry"/>
                </mxCell>
                <mxCell id="HuJQZx4Fs1qWkKsaPRrp-49" value="Buscar Info" style="whiteSpace=wrap;html=1;" parent="_BqzhUo7r6KFsQszncDg-1" vertex="1">
                    <mxGeometry x="-620" y="-150" width="120" height="60" as="geometry"/>
                </mxCell>
                <mxCell id="HuJQZx4Fs1qWkKsaPRrp-50" value="Enviar Email" style="whiteSpace=wrap;html=1;" parent="_BqzhUo7r6KFsQszncDg-1" vertex="1">
                    <mxGeometry x="-620" y="-230" width="120" height="60" as="geometry"/>
                </mxCell>
                <mxCell id="HuJQZx4Fs1qWkKsaPRrp-54" style="edgeStyle=orthogonalEdgeStyle;rounded=0;orthogonalLoop=1;jettySize=auto;html=1;" parent="_BqzhUo7r6KFsQszncDg-1" source="HuJQZx4Fs1qWkKsaPRrp-51" target="HuJQZx4Fs1qWkKsaPRrp-37" edge="1">
                    <mxGeometry relative="1" as="geometry"/>
                </mxCell>
                <mxCell id="HuJQZx4Fs1qWkKsaPRrp-51" value="Gerar 100 works com nome (Fila busca info)" style="whiteSpace=wrap;html=1;" parent="_BqzhUo7r6KFsQszncDg-1" vertex="1">
                    <mxGeometry x="-400" y="-80" width="120" height="80" as="geometry"/>
                </mxCell>
                <mxCell id="HuJQZx4Fs1qWkKsaPRrp-63" style="edgeStyle=orthogonalEdgeStyle;rounded=0;orthogonalLoop=1;jettySize=auto;html=1;" parent="_BqzhUo7r6KFsQszncDg-1" source="HuJQZx4Fs1qWkKsaPRrp-61" edge="1">
                    <mxGeometry relative="1" as="geometry">
                        <mxPoint x="249" y="460" as="targetPoint"/>
                        <Array as="points">
                            <mxPoint x="600" y="460"/>
                            <mxPoint x="249" y="460"/>
                        </Array>
                    </mxGeometry>
                </mxCell>
                <mxCell id="HuJQZx4Fs1qWkKsaPRrp-61" value="Producer (Enviar Email)" style="whiteSpace=wrap;html=1;" parent="_BqzhUo7r6KFsQszncDg-1" vertex="1">
                    <mxGeometry x="540" y="350" width="120" height="60" as="geometry"/>
                </mxCell>
            </root>
        </mxGraphModel>
    </diagram>
</mxfile>